<?xml version="1.0" encoding="utf-8"?>
<!-- Generator: Adobe Illustrator 25.2.3, SVG Export Plug-In . SVG Version: 6.00 Build 0)  -->
<svg version="1.1" id="Capa_1" xmlns="http://www.w3.org/2000/svg" xmlns:xlink="http://www.w3.org/1999/xlink" x="0px" y="0px"
	 viewBox="0 0 30 30" style="enable-background:new 0 0 30 30;" xml:space="preserve">
<style type="text/css">
	.st0{fill:#FFFFFF;}
</style>
<g>
	<path class="st0" d="M23.8,1.89h-9.33c-1.84,0-3.33,1.5-3.33,3.33v2.67c0,0.37,0.3,0.67,0.67,0.67s0.67-0.3,0.67-0.67V5.22
		c0-1.1,0.9-2,2-2h9.33c1.1,0,2,0.9,2,2v20c0,1.1-0.9,2-2,2h-9.33c-1.1,0-2-0.9-2-2v-2.67c0-0.37-0.3-0.67-0.67-0.67
		s-0.67,0.3-0.67,0.67v2.67c0,1.84,1.5,3.33,3.33,3.33h9.33c1.84,0,3.33-1.5,3.33-3.33v-20C27.13,3.38,25.64,1.89,23.8,1.89z"/>
	<path class="st0" d="M15.33,18.75c-0.26,0.26-0.26,0.68,0,0.94c0.13,0.13,0.3,0.2,0.47,0.2s0.34-0.07,0.47-0.2l4-4
		c0.26-0.26,0.26-0.68,0-0.94l-4-4c-0.26-0.26-0.68-0.26-0.94,0c-0.26,0.26-0.26,0.68,0,0.94l2.86,2.86H3.8
		c-0.37,0-0.67,0.3-0.67,0.67c0,0.37,0.3,0.67,0.67,0.67h14.39L15.33,18.75z"/>
</g>
</svg>
