<?xml version="1.0" encoding="utf-8"?>
<!-- Generator: Adobe Illustrator 25.2.3, SVG Export Plug-In . SVG Version: 6.00 Build 0)  -->
<svg version="1.1" id="Capa_1" xmlns="http://www.w3.org/2000/svg" xmlns:xlink="http://www.w3.org/1999/xlink" x="0px" y="0px"
	 viewBox="0 0 180 180" style="enable-background:new 0 0 180 180;" xml:space="preserve">
<style type="text/css">
	.st0{fill:#F8C33F;}
	.st1{fill:#DDA729;}
	.st2{fill:#ED6981;}
	.st3{fill:#874F20;}
</style>
<g>
	<path class="st0" d="M162.34,51.44c-0.04-4.38-1.77-7.49-1.22-17.53c0.37-6.78,2.29-12.99,3.58-16.47c0.48-1.3-0.7-2.62-2.04-2.27
		c-2.18,0.57-5.51,1.62-10.06,3.54c-6.97,2.94-12.77,2.89-15.1,2.71c-7.4-4.02-15.88-6.31-24.89-6.31h-45.6
		c-9.01,0-17.49,2.28-24.89,6.31c-2.33,0.18-8.13,0.23-15.1-2.71c-4.55-1.92-7.87-2.97-10.06-3.54c-1.35-0.35-2.52,0.96-2.04,2.27
		c1.28,3.48,3.21,9.69,3.58,16.47c0.55,10.04-1.18,13.15-1.22,17.53c-1.6,5.01-2.47,10.34-2.47,15.88v45.6
		c0,28.83,23.37,52.2,52.2,52.2h45.6c28.83,0,52.2-23.37,52.2-52.2v-45.6C164.81,61.78,163.94,56.45,162.34,51.44z"/>
	<path class="st1" d="M164.81,103.33c0,0-25.99,44.53-84.59,44.53c-37.79,0-44.74-6.82-62.33-17.24c7.25,20.12,26.5,34.5,49.12,34.5
		h45.6c28.83,0,52.2-23.37,52.2-52.2V103.33z"/>
	<path class="st2" d="M73.31,55.91c-4.04-3.64-10.36-3.07-14.2,0.77l-3.06,3.06l-3.06-3.06c-3.84-3.84-10.16-4.41-14.2-0.77
		c-4.31,3.88-4.44,10.52-0.39,14.56c3.21,3.21,11.08,11.09,15.14,15.15c1.39,1.39,3.63,1.39,5.02,0
		c4.06-4.06,11.93-11.94,15.14-15.15C77.74,66.43,77.61,59.79,73.31,55.91z"/>
	<path class="st2" d="M140.83,55.91c-4.04-3.64-10.36-3.07-14.2,0.77l-3.06,3.06l-3.06-3.06c-3.84-3.84-10.16-4.41-14.2-0.77
		c-4.31,3.88-4.44,10.52-0.39,14.56c3.21,3.21,11.08,11.09,15.14,15.15c1.39,1.39,3.63,1.39,5.02,0
		c4.06-4.06,11.93-11.94,15.14-15.15C145.26,66.43,145.13,59.79,140.83,55.91z"/>
	<g>
		<path class="st3" d="M60.07,96.97c-2.63-0.62-5.33-0.98-8.05-1.1c-2.68-0.09-5.38,0.07-8.05,0.45c-2.66,0.42-5.29,1.06-7.85,1.9
			c-5.1,1.74-9.89,4.32-14.13,7.56c-2.12,1.62-4.1,3.4-5.91,5.34c-0.02,0.02-0.04,0.04-0.05,0.06c-0.84,0.91,0.35,2.26,1.37,1.54
			c2.11-1.49,4.27-2.87,6.47-4.17c4.36-2.56,8.91-4.68,13.62-6.29c2.36-0.79,4.77-1.43,7.2-1.96c2.44-0.5,4.91-0.85,7.42-1.08
			c2.54-0.21,5.1-0.27,7.69-0.2C61.03,99.05,61.28,97.26,60.07,96.97z"/>
		<path class="st3" d="M58.3,110.01c-3.13,0.31-6.25,0.98-9.26,1.99c-2.98,0.98-5.87,2.24-8.6,3.79c-2.74,1.53-5.36,3.28-7.79,5.24
			c-4.89,3.9-9.17,8.5-12.77,13.53c-1.8,2.53-3.47,5.16-4.93,7.89c-0.6,1.12,0.96,2.12,1.75,1.12c1.87-2.38,3.8-4.68,5.8-6.92
			c3.96-4.47,8.21-8.61,12.82-12.28c2.28-1.86,4.71-3.53,7.19-5.09c2.48-1.58,5.08-2.94,7.76-4.15c2.7-1.25,5.51-2.25,8.41-3.07
			C59.88,111.71,59.57,109.89,58.3,110.01z"/>
		<path class="st3" d="M119.54,96.97c2.63-0.62,5.33-0.98,8.05-1.1c2.68-0.09,5.38,0.07,8.05,0.45c2.66,0.42,5.29,1.06,7.85,1.9
			c5.1,1.74,9.89,4.32,14.13,7.56c2.12,1.62,4.1,3.4,5.91,5.34c0.02,0.02,0.04,0.04,0.05,0.06c0.84,0.91-0.35,2.26-1.37,1.54
			c-2.11-1.49-4.27-2.87-6.47-4.17c-4.36-2.56-8.91-4.68-13.62-6.29c-2.36-0.79-4.77-1.43-7.2-1.96c-2.44-0.5-4.91-0.85-7.42-1.08
			c-2.54-0.21-5.1-0.27-7.69-0.2C118.59,99.05,118.33,97.26,119.54,96.97z"/>
		<path class="st3" d="M121.31,110.01c3.13,0.31,6.25,0.98,9.26,1.99c2.98,0.98,5.87,2.24,8.6,3.79c2.74,1.53,5.36,3.28,7.79,5.24
			c4.89,3.9,9.17,8.5,12.77,13.53c1.8,2.53,3.47,5.16,4.93,7.89c0.6,1.12-0.96,2.12-1.75,1.12c-1.87-2.38-3.8-4.68-5.8-6.92
			c-3.96-4.47-8.21-8.61-12.82-12.28c-2.28-1.86-4.71-3.53-7.19-5.09c-2.48-1.58-5.08-2.94-7.76-4.15c-2.7-1.25-5.51-2.25-8.41-3.07
			C119.73,111.71,120.05,109.89,121.31,110.01z"/>
	</g>
	<path class="st3" d="M114.55,95.53H89.81H65.07c-1.55,0-2.77,1.34-2.61,2.88c0.65,6.23,4.64,20.37,27.35,20.37
		s26.69-14.14,27.35-20.37C117.32,96.87,116.1,95.53,114.55,95.53z"/>
	<path class="st2" d="M89.81,118.78c6.75,0,11.84-1.26,15.69-3.18c-1.35-1.96-3.38-3.86-6.41-4.53c-7.12-1.57-9.28,0.58-9.28,0.58
		s-2.15-2.15-9.28-0.58c-3.03,0.67-5.07,2.57-6.41,4.53C77.96,117.52,83.05,118.78,89.81,118.78z"/>
</g>
</svg>
