<?xml version="1.0" encoding="utf-8"?>
<!-- Generator: Adobe Illustrator 25.2.3, SVG Export Plug-In . SVG Version: 6.00 Build 0)  -->
<svg version="1.1" id="Capa_1" xmlns="http://www.w3.org/2000/svg" xmlns:xlink="http://www.w3.org/1999/xlink" x="0px" y="0px"
	 viewBox="0 0 80 80" style="enable-background:new 0 0 80 80;" xml:space="preserve">
<style type="text/css">
	.st0{fill:#F9DE6A;}
	.st1{fill:#99C33B;}
	.st2{fill:#4A4A4A;}
	.st3{fill:#FBC473;}
	.st4{fill:#F191B8;}
	.st5{fill:#FDE7C7;}
	.st6{fill:#E8A84A;}
	.st7{fill:#702F13;}
	.st8{fill:#C76D37;}
</style>
<g>
	<path class="st0" d="M315.53,26c13.14,1.66,19.05-10.88,19.05-10.88c-21.91-11.89-31.92,7.6-31.92,7.6
		c3.24-0.64,5.89,0.47,7.41,1.38C311.72,25.07,313.58,25.75,315.53,26z"/>
	
		<ellipse transform="matrix(0.9596 -0.2814 0.2814 0.9596 7.6468 90.657)" class="st1" cx="319.43" cy="18.71" rx="6.91" ry="6.91"/>
	<path class="st2" d="M317.78,12c-2.6,4.56-1.12,10.57,3.29,13.41C323.67,20.85,322.2,14.84,317.78,12z"/>
	<path class="st0" d="M283.63,26c1.96-0.25,3.81-0.93,5.46-1.91c1.52-0.91,4.18-2.02,7.41-1.38c0,0-10.01-19.49-31.92-7.6
		C264.58,15.11,270.48,27.65,283.63,26z"/>
	
		<ellipse transform="matrix(0.3675 -0.93 0.93 0.3675 159.5199 271.9845)" class="st1" cx="279.73" cy="18.71" rx="6.91" ry="6.91"/>
	<path class="st2" d="M281.38,12c-4.42,2.84-5.89,8.85-3.29,13.41C282.5,22.57,283.98,16.57,281.38,12z"/>
</g>
<g>
	<path class="st3" d="M4.45,10.05c0,16.36,13.27,29.63,29.63,29.63C34.08,23.32,20.82,10.05,4.45,10.05z"/>
	<path class="st4" d="M12.45,18.04c0,7.54,6.11,13.64,13.64,13.64C26.09,24.15,19.98,18.04,12.45,18.04z"/>
	<path class="st3" d="M46.45,39.68c16.36,0,29.63-13.27,29.63-29.63C59.71,10.05,46.45,23.32,46.45,39.68z"/>
	<path class="st4" d="M54.44,31.69c7.54,0,13.64-6.11,13.64-13.64C60.55,18.04,54.44,24.15,54.44,31.69z"/>
	<path class="st5" d="M46.01,70.87c12.53,0,22.69-10.16,22.69-22.7v-3.53c0-9.76-4.92-18.37-12.42-23.49
		c-4.56-3.12-10.08-4.94-16.01-4.94h-0.01c-1.39,0-2.76,0.1-4.1,0.29c-13.75,1.99-24.33,13.83-24.33,28.13v3.53
		c0,12.53,10.16,22.7,22.69,22.7H46.01z"/>
	<path class="st6" d="M56.28,21.15c-4.56-3.12-10.08-4.94-16.01-4.94h-0.01c-1.39,0-2.76,0.1-4.1,0.29
		c0.15,5.76,4.87,10.38,10.67,10.38C50.93,26.88,54.5,24.56,56.28,21.15z"/>
	<g>
		<path class="st6" d="M60.6,50.47c0.3-0.1,7.42-2.31,15.67,3.67c0.22,0.16,0.48,0.24,0.74,0.24c0.39,0,0.77-0.18,1.02-0.52
			c0.41-0.56,0.28-1.35-0.28-1.76c-9.34-6.77-17.59-4.14-17.93-4.02c-0.66,0.22-1.01,0.93-0.79,1.58
			C59.24,50.33,59.95,50.69,60.6,50.47z"/>
	</g>
	<g>
		<path class="st6" d="M73.56,64.47c0.25,0.32,0.62,0.49,0.99,0.49c0.27,0,0.54-0.09,0.77-0.26c0.55-0.43,0.65-1.21,0.22-1.76
			c-7.07-9.12-15.72-8.9-16.09-8.89c-0.69,0.03-1.23,0.61-1.21,1.3c0.03,0.69,0.61,1.24,1.3,1.21
			C59.64,56.55,67.28,56.36,73.56,64.47z"/>
	</g>
	<g>
		<path class="st6" d="M3.52,54.39c0.26,0,0.51-0.08,0.74-0.24c8.24-5.98,15.35-3.78,15.67-3.67c0.66,0.22,1.37-0.14,1.59-0.8
			c0.22-0.66-0.14-1.37-0.79-1.59c-0.35-0.12-8.6-2.75-17.93,4.02c-0.56,0.41-0.69,1.19-0.28,1.76C2.75,54.21,3.13,54.39,3.52,54.39
			z"/>
	</g>
	<g>
		<path class="st6" d="M5.97,64.95c0.38,0,0.75-0.17,0.99-0.49c6.24-8.05,13.69-7.93,14.01-7.91c0.73,0.03,1.27-0.52,1.3-1.21
			c0.03-0.69-0.51-1.28-1.21-1.3c-0.37-0.02-9.02-0.23-16.09,8.89c-0.43,0.55-0.33,1.34,0.22,1.76C5.43,64.87,5.7,64.95,5.97,64.95z
			"/>
	</g>
	<path class="st7" d="M53.87,38.69c0-2.27-1.39-4.11-3.11-4.11c-1.72,0-3.11,1.84-3.11,4.11c0,2.27,1.39,4.11,3.11,4.11
		C52.48,42.81,53.87,40.97,53.87,38.69z"/>
	<path class="st7" d="M32.87,38.69c0-2.27-1.39-4.11-3.11-4.11c-1.72,0-3.11,1.84-3.11,4.11c0,2.27,1.39,4.11,3.11,4.11
		C31.48,42.81,32.87,40.97,32.87,38.69z"/>
	<path class="st4" d="M43.27,58.22c-0.55-0.25-1.04-0.6-1.47-1.03c-0.95-0.94-1.54-2.26-1.54-3.71c0,2.09-1.23,3.91-3.01,4.74
		c0.06,2.69,1.39,4.83,3.01,4.83C41.89,63.05,43.22,60.91,43.27,58.22z"/>
	<g>
		<path class="st7" d="M40.26,49.68c-0.69,0-1.26,0.56-1.26,1.26v2.54c0,1.74,0.68,3.38,1.91,4.6c0.54,0.54,1.15,0.97,1.81,1.27
			c0.87,0.42,1.81,0.64,2.79,0.64c3.59,0,6.51-2.92,6.51-6.51c0-0.69-0.56-1.26-1.26-1.26c-0.69,0-1.26,0.56-1.26,1.26
			c0,2.2-1.79,3.99-3.99,3.99c-0.59,0-1.16-0.13-1.71-0.4c-0.41-0.19-0.78-0.45-1.11-0.78c-0.75-0.75-1.17-1.75-1.17-2.82v-2.54
			C41.52,50.25,40.96,49.68,40.26,49.68z"/>
	</g>
	<path class="st8" d="M39.76,50.79c0.32,0.17,0.69,0.17,1.01,0c0.82-0.42,1.84-1.06,2.82-1.99c0.36-0.34,0.67-0.68,0.94-1
		c0.56-0.68,0.14-1.7-0.73-1.8c-1.09-0.12-2.32-0.2-3.65-0.19c-1.25,0-2.39,0.08-3.42,0.19c-0.87,0.1-1.28,1.12-0.73,1.8
		c0.27,0.33,0.58,0.66,0.94,1C37.92,49.73,38.94,50.36,39.76,50.79z"/>
	<g>
		<path class="st7" d="M37.79,59.36c2.27-1.06,3.73-3.37,3.73-5.88c0-0.69-0.56-1.26-1.26-1.26c-0.69,0-1.26,0.56-1.26,1.26
			c0,1.54-0.9,2.95-2.3,3.61c-0.53,0.26-1.1,0.39-1.69,0.39c-1.06,0-2.07-0.42-2.82-1.17c-0.75-0.75-1.17-1.75-1.17-2.82
			c0-0.69-0.56-1.26-1.26-1.26c-0.69,0-1.26,0.56-1.26,1.26c0,1.74,0.68,3.38,1.91,4.6c1.23,1.23,2.86,1.91,4.6,1.91
			C35.99,59.99,36.93,59.77,37.79,59.36z"/>
	</g>
</g>
</svg>
