<?xml version="1.0" encoding="utf-8"?>
<!-- Generator: Adobe Illustrator 25.2.3, SVG Export Plug-In . SVG Version: 6.00 Build 0)  -->
<svg version="1.1" id="Capa_1" xmlns="http://www.w3.org/2000/svg" xmlns:xlink="http://www.w3.org/1999/xlink" x="0px" y="0px"
	 viewBox="0 0 180 180" style="enable-background:new 0 0 180 180;" xml:space="preserve">
<style type="text/css">
	.st0{fill:#F8C33F;}
	.st1{fill:#DDA729;}
	.st2{fill:#874F20;}
	.st3{fill:#ED6981;}
</style>
<g>
	<path class="st0" d="M167.17,48.86c-0.04-4.67-1.89-7.99-1.3-18.7c0.4-7.23,2.45-13.85,3.82-17.56c0.51-1.39-0.74-2.79-2.18-2.42
		c-2.33,0.61-5.87,1.72-10.73,3.77c-7.43,3.14-13.62,3.09-16.11,2.89c-7.89-4.29-16.94-6.73-26.55-6.73H65.49
		c-9.61,0-18.66,2.44-26.55,6.73c-2.49,0.19-8.67,0.24-16.11-2.89c-4.85-2.05-8.4-3.17-10.73-3.77c-1.43-0.37-2.69,1.03-2.18,2.42
		c1.37,3.71,3.42,10.33,3.82,17.56c0.59,10.7-1.26,14.03-1.3,18.7c-1.7,5.34-2.63,11.03-2.63,16.94v48.64
		c0,30.75,24.93,55.68,55.68,55.68h48.64c30.75,0,55.68-24.93,55.68-55.68V65.8C169.81,59.89,168.88,54.2,167.17,48.86z"/>
	<path class="st1" d="M169.81,104.21c0,0-27.73,47.5-90.23,47.5c-40.31,0-47.73-7.27-66.48-18.39c7.73,21.46,28.27,36.8,52.39,36.8
		h48.64c30.75,0,55.68-24.93,55.68-55.68V104.21z"/>
	<ellipse class="st2" cx="89.81" cy="100.12" rx="21.06" ry="2.16"/>
	<path class="st2" d="M67.31,74.44c-0.03,1.29-1.69,1.81-2.41,0.75c-1.22-1.8-2.62-3.14-4.13-4.12c-2.22-1.45-4.59-2.09-6.97-2.1
		c-2.38,0.02-4.75,0.66-6.96,2.11c-1.52,0.99-2.92,2.33-4.15,4.14c-0.72,1.06-2.37,0.54-2.41-0.75c-0.07-2.56,0.83-5.26,2.52-7.43
		c2.48-3.28,6.72-5.37,11.01-5.33c4.28-0.03,8.53,2.06,11,5.34C66.48,69.2,67.37,71.89,67.31,74.44z"/>
	<path class="st2" d="M139.34,74.44c-0.03,1.29-1.69,1.81-2.41,0.75c-1.22-1.8-2.62-3.14-4.13-4.12c-2.22-1.45-4.59-2.09-6.97-2.1
		c-2.38,0.02-4.75,0.66-6.96,2.11c-1.52,0.99-2.92,2.33-4.15,4.14c-0.72,1.06-2.37,0.54-2.41-0.75c-0.07-2.56,0.83-5.26,2.52-7.43
		c2.48-3.28,6.72-5.37,11.01-5.33c4.28-0.03,8.53,2.06,11,5.34C138.5,69.2,139.39,71.89,139.34,74.44z"/>
	<g>
		<path class="st2" d="M58.09,97.43c-2.8-0.66-5.68-1.05-8.59-1.17c-2.86-0.1-5.74,0.08-8.58,0.48c-2.84,0.45-5.65,1.13-8.38,2.03
			c-5.44,1.86-10.55,4.61-15.07,8.06c-2.26,1.73-4.37,3.63-6.31,5.69c-0.02,0.02-0.04,0.04-0.06,0.06c-0.9,0.97,0.38,2.41,1.46,1.65
			c2.26-1.58,4.55-3.07,6.9-4.45c4.65-2.73,9.51-4.99,14.53-6.71c2.52-0.84,5.08-1.52,7.68-2.09c2.6-0.53,5.24-0.9,7.91-1.15
			c2.71-0.23,5.44-0.28,8.2-0.22C59.11,99.65,59.38,97.73,58.09,97.43z"/>
		<path class="st2" d="M56.2,111.34c-3.34,0.33-6.67,1.04-9.88,2.12c-3.18,1.04-6.26,2.39-9.18,4.04c-2.92,1.64-5.72,3.49-8.31,5.59
			c-5.22,4.16-9.78,9.07-13.62,14.43c-1.92,2.7-3.7,5.5-5.26,8.41c-0.64,1.19,1.02,2.26,1.86,1.19c2-2.53,4.05-4.99,6.18-7.38
			c4.23-4.76,8.76-9.19,13.67-13.1c2.44-1.98,5.02-3.76,7.67-5.43c2.64-1.68,5.42-3.13,8.28-4.42c2.88-1.33,5.88-2.4,8.97-3.27
			C57.88,113.15,57.55,111.21,56.2,111.34z"/>
		<path class="st2" d="M121.52,97.43c2.8-0.66,5.68-1.05,8.59-1.17c2.86-0.1,5.74,0.08,8.58,0.48c2.84,0.45,5.65,1.13,8.38,2.03
			c5.44,1.86,10.55,4.61,15.07,8.06c2.26,1.73,4.37,3.63,6.31,5.69c0.02,0.02,0.04,0.04,0.06,0.06c0.9,0.97-0.38,2.41-1.46,1.65
			c-2.26-1.58-4.55-3.07-6.9-4.45c-4.65-2.73-9.51-4.99-14.53-6.71c-2.52-0.84-5.08-1.52-7.68-2.09c-2.6-0.53-5.24-0.9-7.91-1.15
			c-2.71-0.23-5.44-0.28-8.2-0.22C120.51,99.65,120.23,97.73,121.52,97.43z"/>
		<path class="st2" d="M123.41,111.34c3.34,0.33,6.67,1.04,9.88,2.12c3.18,1.04,6.26,2.39,9.18,4.04c2.92,1.64,5.72,3.49,8.31,5.59
			c5.22,4.16,9.78,9.07,13.62,14.43c1.92,2.7,3.7,5.5,5.26,8.41c0.64,1.19-1.02,2.26-1.86,1.19c-2-2.53-4.05-4.99-6.18-7.38
			c-4.23-4.76-8.76-9.19-13.67-13.1c-2.44-1.98-5.02-3.76-7.67-5.43c-2.64-1.68-5.42-3.13-8.28-4.42c-2.88-1.33-5.88-2.4-8.97-3.27
			C121.73,113.15,122.06,111.21,123.41,111.34z"/>
	</g>
	<path class="st3" d="M89.81,102.28c-4.25,0-8.21-0.13-11.52-0.35v14.4c0,6,4.91,10.91,10.91,10.91h1.21c6,0,10.91-4.91,10.91-10.91
		v-14.4C98.01,102.15,94.06,102.28,89.81,102.28z"/>
</g>
</svg>
