<?xml version="1.0" encoding="utf-8"?>
<!-- Generator: Adobe Illustrator 25.2.3, SVG Export Plug-In . SVG Version: 6.00 Build 0)  -->
<svg version="1.1" id="Capa_1" xmlns="http://www.w3.org/2000/svg" xmlns:xlink="http://www.w3.org/1999/xlink" x="0px" y="0px"
	 viewBox="0 0 205 55" style="enable-background:new 0 0 205 55;" xml:space="preserve">
<style type="text/css">
	.st0{fill-rule:evenodd;clip-rule:evenodd;fill:#FFFFFF;}
	.st1{opacity:0.55;fill-rule:evenodd;clip-rule:evenodd;fill:#FFFFFF;}
	.st2{fill:#FFFFFF;}
	.st3{font-family:'Poppins-Regular';}
	.st4{font-size:29.101px;}
	.st5{font-family:'Poppins-Bold';}
	.st6{font-size:17.5839px;}
</style>
<g>
	<g>
		<path class="st0" d="M29.9,35.91v-0.02c0,0-0.01,0-0.03,0.01c-0.02-0.01-0.03-0.01-0.03-0.01v0.02c0.01,0,0.02-0.01,0.03-0.01
			C29.87,35.9,29.89,35.91,29.9,35.91z"/>
		<path class="st0" d="M28.62,39.88c-0.12,0.18-0.26,0.4-0.41,0.62c0.04-0.05,0.09-0.11,0.13-0.16c0.58-0.66,1.28-0.59,1.52-0.55
			c0.01,0,0.03,0.01,0.04,0.01c0,0,0,0,0,0c0.01,0,0.02-0.01,0.04-0.01c0.22-0.04,0.85-0.1,1.41,0.45
			c-0.08-0.13-0.16-0.25-0.24-0.36c-0.46-0.65-1.02-0.59-1.21-0.54c-0.01,0-0.03,0.01-0.03,0.01c-0.01,0-0.02-0.01-0.03-0.01
			C29.65,39.29,29.09,39.23,28.62,39.88z"/>
		<path class="st1" d="M23.38,25.3c-0.53-0.11-1.51,7.09,0.36,6.5c1.87-0.58,2.73-1.87,2.73-2.66
			C26.47,27.77,23.92,25.41,23.38,25.3z"/>
		<path class="st0" d="M46.14,29.05c-0.51-6.47-3.83-21.28-3.83-21.28l-5.73,3.98c0,0-1.15-0.77-2.98-1.15
			c-1.83-0.38-3.72-0.36-3.72-0.36s-1.89-0.02-3.72,0.36c-1.83,0.38-2.98,1.15-2.98,1.15l-5.73-3.98c0,0-3.32,14.81-3.83,21.28
			c-0.51,6.47-2.34,19.2,6.26,20.22c7.58,0.9,8.81-4.29,8.82-6.64c-0.69-0.18-1.26-0.5-1.65-0.89c0.03-0.02,0.06-0.05,0.09-0.07
			c0.07-0.05,0.13-0.12,0.19-0.18c-0.79,0.56-1.79,0.17-2.32-0.56c-0.29-0.39-0.46-0.86-0.6-1.33c-0.14-0.46-0.91-5.95-0.56-5.9
			c0,0-1.4-0.21-1.71-1.95c-0.08-0.43-0.12-1.04-0.12-1.72l-3.44,1.47l-0.32-0.75l3.72-1.6l0.04,0.1c0.02-0.71,0.06-1.46,0.13-2.14
			h-4.63v-0.82h4.64v0.76c0.12-1.13,0.3-2.09,0.52-2.45c0.55-0.89,4.17,1.85,4.76,4.72h4.88c0.58-2.87,4.21-5.61,4.76-4.72
			c0.22,0.36,0.4,1.32,0.52,2.45v-0.76h4.64v0.82l-4.63,0c0.07,0.69,0.12,1.43,0.13,2.14l0.04-0.1l3.72,1.6l-0.32,0.75l-3.44-1.47
			c-0.01,0.68-0.04,1.29-0.12,1.72c-0.31,1.74-1.71,1.95-1.71,1.95c0.18,1.97-0.02,3.82-0.49,5.74c-0.11,0.44-0.22,0.88-0.44,1.27
			c-0.43,0.76-1.54,1.34-2.37,0.9c0.13,0.11,0.26,0.21,0.4,0.3c-0.47,0.4-1.15,0.69-1.94,0.82c0.05,2.39,1.35,7.42,8.82,6.53
			C48.48,48.25,46.65,35.52,46.14,29.05z M21.84,24.45l-3.45-1.57l0.34-0.74l3.45,1.57L21.84,24.45z M22.92,21.54
			c-0.51,0-0.92-0.65-0.92-1.46c0-0.81,0.41-1.46,0.92-1.46c0.51,0,0.92,0.65,0.92,1.46C23.83,20.89,23.42,21.54,22.92,21.54z
			 M31.89,21.62c0,0-0.28-0.16-0.6-0.11c-0.32,0.05-0.57,0.04-0.69,0.66c-0.12,0.62-0.72,0.67-0.72,0.67s-0.61-0.05-0.72-0.67
			c-0.12-0.62-0.37-0.61-0.69-0.66c-0.32-0.05-0.6,0.11-0.6,0.11s-0.39-0.85,0.36-1.23c0.76-0.38,1.65-0.34,1.65-0.34
			s0.89-0.04,1.65,0.34C32.28,20.77,31.89,21.62,31.89,21.62z M36.84,21.54c-0.51,0-0.91-0.65-0.91-1.46c0-0.81,0.41-1.46,0.91-1.46
			c0.51,0,0.92,0.65,0.92,1.46C37.75,20.89,37.34,21.54,36.84,21.54z M37.91,24.45l-0.34-0.74l3.45-1.57l0.34,0.74L37.91,24.45z"/>
		<path class="st1" d="M36.1,31.8c1.87,0.58,0.89-6.65,0.36-6.5c-1.18,0.32-3.09,3.05-3.09,3.84C33.37,29.93,34.22,31.22,36.1,31.8z
			"/>
	</g>
	<path class="st0" d="M33,32.28c-0.32,0-0.57,0.41-0.57,0.91c0,0.5,0.26,0.91,0.57,0.91c0.32,0,0.57-0.41,0.57-0.91
		C33.57,32.69,33.32,32.28,33,32.28L33,32.28z"/>
	<path class="st0" d="M30.02,37.69c0,0-0.46-0.04-0.55-0.51c-0.09-0.46-0.28-0.46-0.52-0.5c-0.24-0.04-0.45,0.08-0.45,0.08
		s-0.3-0.64,0.27-0.93c0.57-0.29,1.24-0.26,1.24-0.26s0.67-0.03,1.24,0.26c0.57,0.29,0.27,0.93,0.27,0.93s-0.21-0.12-0.45-0.08
		c-0.24,0.04-0.43,0.03-0.52,0.5C30.48,37.65,30.02,37.69,30.02,37.69L30.02,37.69z"/>
	<path class="st0" d="M27.05,32.28c-0.32,0-0.57,0.41-0.57,0.91c0,0.5,0.26,0.91,0.57,0.91c0.32,0,0.57-0.41,0.57-0.91
		C27.62,32.69,27.36,32.28,27.05,32.28L27.05,32.28z"/>
	<text transform="matrix(1 0 0 1 55.0487 39.5918)"><tspan x="0" y="0" class="st2 st3 st4">Pet </tspan><tspan x="52.82" y="0" class="st2 st5 st4">Love</tspan></text>
	<text transform="matrix(1 0 0 1 177.6395 26.2412)" class="st2 st5 st6">®</text>
</g>
</svg>
