<?xml version="1.0" encoding="utf-8"?>
<!-- Generator: Adobe Illustrator 25.2.3, SVG Export Plug-In . SVG Version: 6.00 Build 0)  -->
<svg version="1.1" id="Capa_1" xmlns="http://www.w3.org/2000/svg" xmlns:xlink="http://www.w3.org/1999/xlink" x="0px" y="0px"
	 viewBox="0 0 205 55" style="enable-background:new 0 0 205 55;" xml:space="preserve">
<style type="text/css">
	.st0{fill:#FFFFFF;}
	.st1{font-family:'Poppins-Regular';}
	.st2{font-size:29.101px;}
	.st3{font-family:'Poppins-Bold';}
	.st4{font-size:17.5839px;}
	.st5{fill-rule:evenodd;clip-rule:evenodd;fill:#FFFFFF;}
	.st6{opacity:0.44;fill:#FFFFFF;stroke:#FFFFFF;stroke-width:2;stroke-linecap:round;stroke-linejoin:round;stroke-miterlimit:10;}
</style>
<g>
	<g>
		<text transform="matrix(1 0 0 1 56.6919 39.5971)"><tspan x="0" y="0" class="st0 st1 st2">Pet </tspan><tspan x="52.82" y="0" class="st0 st3 st2">Love</tspan></text>
		<text transform="matrix(1 0 0 1 179.2827 26.2465)" class="st0 st3 st4">®</text>
	</g>
	<path class="st5" d="M33.98,40.81c-0.71,1.35-2.08,3.05-4.68,4.57c0.53,1.83,2.48,3.91,8.49,3.2c8.46-1,6.66-13.52,6.15-19.88
		c-0.5-6.36-3.77-20.93-3.77-20.93l-5.63,3.91c0,0-1.13-0.75-2.93-1.13c-1.8-0.38-3.66-0.36-3.66-0.36s-1.86-0.02-3.66,0.36
		c-1.8,0.38-2.93,1.13-2.93,1.13l-5.63-3.91c0,0-3.27,14.57-3.77,20.93c-0.5,6.36-2.3,18.88,6.15,19.88
		c5.99,0.71,7.94-1.35,8.49-3.17c-2.61-1.51-3.97-3.2-4.7-4.55l-0.61-1.44c-0.23-0.74-0.3-1.53-0.09-2.28
		c0.45-1.67,1.95-2.89,3.72-2.89c1.22,0,2.3,0.59,3,1.5c0.71-0.91,1.78-1.5,3-1.5c1.77,0,3.27,1.22,3.72,2.89
		c0.2,0.75,0.13,1.54-0.09,2.28c-0.1,0.31-0.23,0.67-0.42,1.06L33.98,40.81z M17,21.89l3.39,1.55l-0.33,0.73l-3.39-1.55L17,21.89z
		 M15.81,25.99h4.56v0.8h-4.56V25.99z M16.84,31.12l-0.31-0.74l3.66-1.57l0.31,0.74L16.84,31.12z M21.11,21.31
		c-0.5,0-0.9-0.64-0.9-1.43c0-0.79,0.4-1.43,0.9-1.43c0.5,0,0.9,0.64,0.9,1.43C22.01,20.67,21.61,21.31,21.11,21.31z M27.98,35.44
		c-0.01,0-0.03-0.01-0.03-0.01c-0.01,0-0.02,0.01-0.03,0.01v-0.02c0,0,0.01,0,0.03,0.01c0.02-0.01,0.03-0.01,0.03-0.01V35.44z
		 M29.94,21.38c0,0-0.27-0.16-0.59-0.1c-0.31,0.05-0.56,0.04-0.68,0.65c-0.12,0.61-0.71,0.66-0.71,0.66s-0.6-0.05-0.71-0.66
		c-0.12-0.61-0.37-0.6-0.68-0.65c-0.31-0.05-0.59,0.1-0.59,0.1s-0.39-0.84,0.36-1.21c0.74-0.38,1.62-0.33,1.62-0.33
		s0.88-0.04,1.62,0.33C30.32,20.55,29.94,21.38,29.94,21.38z M39.25,22.62l-3.39,1.55l-0.33-0.73l3.39-1.55L39.25,22.62z
		 M34.8,21.31c-0.5,0-0.9-0.64-0.9-1.43c0-0.79,0.4-1.43,0.9-1.43c0.5,0,0.9,0.64,0.9,1.43C35.7,20.67,35.3,21.31,34.8,21.31z
		 M39.07,31.12l-3.66-1.57l0.31-0.74l3.66,1.57L39.07,31.12z M40.11,26.8l-4.56,0v-0.8h4.56V26.8z"/>
	<path class="st6" d="M31.21,32.53c-1.36,0-2.56,0.66-3.35,1.67c-0.79-1.01-1.99-1.67-3.35-1.67c-1.98,0-3.64,1.36-4.15,3.22
		c-0.23,0.83-0.15,1.72,0.11,2.55c0.54,1.75,2.15,4.94,7.39,7.46c5.24-2.52,6.85-5.71,7.39-7.46c0.25-0.83,0.33-1.71,0.11-2.55
		C34.85,33.9,33.19,32.53,31.21,32.53z"/>
</g>
</svg>
