<?xml version="1.0" encoding="utf-8"?>
<!-- Generator: Adobe Illustrator 25.2.3, SVG Export Plug-In . SVG Version: 6.00 Build 0)  -->
<svg version="1.1" id="Capa_1" xmlns="http://www.w3.org/2000/svg" xmlns:xlink="http://www.w3.org/1999/xlink" x="0px" y="0px"
	 viewBox="0 0 205 55" style="enable-background:new 0 0 205 55;" xml:space="preserve">
<style type="text/css">
	.st0{fill:#FFFFFF;}
	.st1{fill-rule:evenodd;clip-rule:evenodd;fill:#FFFFFF;}
	.st2{opacity:0.36;fill:#FFFFFF;enable-background:new    ;}
</style>
<g>
	<g>
		<path class="st0" d="M63.96,29.42v8.26h-2.65V17.17h6.52c2.35,0,4.1,0.55,5.27,1.64c1.16,1.1,1.75,2.6,1.75,4.5
			c0,1.92-0.6,3.42-1.8,4.5c-1.2,1.08-2.94,1.62-5.21,1.62H63.96z M71.07,26.19c0.71-0.68,1.06-1.64,1.06-2.88
			c0-1.28-0.35-2.26-1.06-2.92c-0.71-0.67-1.87-1-3.48-1h-3.64v7.83h3.64C69.21,27.21,70.37,26.87,71.07,26.19z"/>
		<path class="st0" d="M92.51,30.26H79.73c0.06,1.82,0.58,3.19,1.56,4.1c0.98,0.91,2.18,1.37,3.59,1.37c1.28,0,2.35-0.33,3.22-0.98
			c0.86-0.65,1.39-1.52,1.59-2.6h2.82c-0.19,1.11-0.63,2.1-1.29,2.97c-0.67,0.87-1.54,1.55-2.6,2.04c-1.07,0.49-2.27,0.73-3.61,0.73
			c-1.53,0-2.89-0.33-4.07-0.99c-1.18-0.66-2.11-1.61-2.78-2.84c-0.67-1.23-1-2.68-1-4.35c0-1.67,0.33-3.12,1-4.37
			c0.67-1.24,1.6-2.19,2.78-2.85c1.18-0.66,2.54-0.99,4.07-0.99c1.55,0,2.91,0.33,4.06,0.99c1.15,0.66,2.04,1.54,2.65,2.65
			c0.61,1.11,0.92,2.33,0.92,3.67C92.62,29.37,92.58,29.86,92.51,30.26z M89.36,26.02c-0.45-0.8-1.06-1.39-1.83-1.78
			c-0.78-0.39-1.62-0.58-2.53-0.58c-1.46,0-2.68,0.45-3.67,1.35c-0.99,0.9-1.52,2.23-1.6,3.97h10.21
			C90,27.8,89.81,26.81,89.36,26.02z"/>
		<path class="st0" d="M103.71,35.36v2.33h-1.98c-1.63,0-2.85-0.39-3.65-1.16c-0.81-0.78-1.21-2.08-1.21-3.9v-8.61h-2.39v-2.3h2.39
			v-3.99h2.68v3.99h4.13v2.3h-4.13v8.67c0,1.03,0.19,1.73,0.57,2.11c0.38,0.38,1.03,0.57,1.96,0.57H103.71z"/>
		<path class="st0" d="M118.7,33.87h6.63v3.81h-11.61V17.11h4.98V33.87z"/>
		<path class="st0" d="M139.55,22.25c1.27,0.67,2.27,1.63,3,2.9c0.73,1.26,1.09,2.74,1.09,4.42c0,1.69-0.36,3.16-1.09,4.42
			s-1.73,2.23-3,2.9c-1.27,0.67-2.71,1-4.32,1s-3.06-0.33-4.34-1c-1.28-0.67-2.29-1.63-3.01-2.9s-1.09-2.74-1.09-4.42
			c0-1.69,0.36-3.16,1.09-4.42c0.73-1.26,1.73-2.23,3.01-2.9s2.73-1,4.34-1S138.28,21.58,139.55,22.25z M132.83,26.58
			c-0.65,0.69-0.97,1.68-0.97,2.98s0.33,2.29,0.97,2.97c0.65,0.68,1.45,1.02,2.4,1.02c0.95,0,1.75-0.34,2.39-1.02
			c0.64-0.68,0.96-1.67,0.96-2.97s-0.32-2.29-0.96-2.98c-0.64-0.69-1.44-1.03-2.39-1.03C134.28,25.55,133.48,25.89,132.83,26.58z"/>
		<path class="st0" d="M153.73,32.83l3.52-11.38h5.3l-5.76,16.24h-6.17l-5.76-16.24h5.3L153.73,32.83z"/>
		<path class="st0" d="M179.9,30.47h-11.26c0.06,1.22,0.37,2.1,0.93,2.63s1.28,0.8,2.15,0.8c0.74,0,1.35-0.18,1.83-0.55
			c0.48-0.37,0.8-0.84,0.96-1.43h5.27c-0.21,1.14-0.68,2.17-1.4,3.07s-1.63,1.61-2.74,2.12c-1.11,0.51-2.34,0.77-3.7,0.77
			c-1.59,0-3-0.33-4.23-1c-1.23-0.67-2.2-1.63-2.9-2.9s-1.05-2.74-1.05-4.42c0-1.71,0.34-3.19,1.03-4.44
			c0.69-1.25,1.65-2.21,2.9-2.88c1.24-0.67,2.66-1,4.25-1c1.61,0,3.03,0.33,4.25,0.99c1.22,0.66,2.17,1.59,2.84,2.78
			c0.67,1.19,1,2.57,1,4.12C180.04,29.54,179.99,29.98,179.9,30.47z M174.15,25.97c-0.59-0.53-1.32-0.8-2.2-0.8
			c-0.91,0-1.67,0.27-2.27,0.81c-0.6,0.54-0.94,1.34-1.02,2.39h6.34C175.03,27.31,174.74,26.51,174.15,25.97z"/>
	</g>
	<g>
		<path class="st0" d="M192.28,21.97c0.98,0.53,1.74,1.28,2.29,2.23s0.82,2.05,0.82,3.28s-0.27,2.33-0.82,3.29
			c-0.54,0.96-1.31,1.71-2.29,2.25c-0.98,0.54-2.1,0.81-3.37,0.81c-1.27,0-2.39-0.27-3.37-0.81s-1.74-1.29-2.29-2.25
			c-0.54-0.96-0.82-2.06-0.82-3.29s0.27-2.32,0.82-3.28c0.55-0.96,1.31-1.7,2.29-2.23c0.98-0.53,2.1-0.8,3.37-0.8
			C190.18,21.17,191.31,21.44,192.28,21.97z M191.81,32.19c0.83-0.45,1.46-1.08,1.91-1.89s0.67-1.76,0.67-2.82
			c0-1.08-0.22-2.02-0.67-2.84c-0.45-0.81-1.08-1.44-1.9-1.88c-0.82-0.44-1.79-0.66-2.9-0.66c-1.11,0-2.08,0.22-2.91,0.66
			c-0.83,0.44-1.46,1.07-1.9,1.88c-0.44,0.81-0.66,1.76-0.66,2.84s0.22,2.02,0.67,2.83c0.45,0.81,1.08,1.44,1.9,1.88
			c0.82,0.45,1.79,0.67,2.9,0.67C190.02,32.86,190.98,32.64,191.81,32.19z M191.68,27.24c-0.29,0.39-0.73,0.66-1.3,0.81l1.85,3.08
			h-2.04l-1.69-2.95h-0.35v2.95h-1.86V23.6h3.06c0.93,0,1.62,0.22,2.08,0.66c0.46,0.44,0.69,0.98,0.69,1.63
			C192.12,26.4,191.97,26.85,191.68,27.24z M188.14,26.99h1.02c0.69,0,1.04-0.28,1.04-0.84c0-0.57-0.35-0.86-1.04-0.86h-1.02V26.99z
			"/>
	</g>
	<g>
		<path class="st1" d="M32.82,40.45c-0.74,1.39-2.14,3.14-4.83,4.71c0.55,1.89,2.56,4.03,8.75,3.29c8.72-1.03,6.86-13.93,6.34-20.49
			C42.57,21.41,39.21,6.4,39.21,6.4l-5.8,4.04c0,0-1.17-0.78-3.02-1.17c-1.85-0.39-3.77-0.37-3.77-0.37s-1.92-0.02-3.77,0.37
			s-3.02,1.17-3.02,1.17l-5.8-4.04c0,0-3.36,15.01-3.88,21.56c-0.52,6.56-2.37,19.45,6.34,20.49c6.17,0.73,8.18-1.39,8.74-3.27
			c-2.69-1.56-4.1-3.29-4.84-4.69l-0.63-1.48c-0.24-0.77-0.31-1.58-0.1-2.35c0.47-1.72,2.01-2.98,3.83-2.98
			c1.26,0,2.37,0.61,3.09,1.54c0.73-0.93,1.84-1.54,3.09-1.54c1.82,0,3.37,1.26,3.83,2.98c0.21,0.77,0.14,1.59-0.1,2.35
			c-0.1,0.32-0.24,0.69-0.43,1.1L32.82,40.45z M15.32,20.95l3.49,1.59l-0.34,0.75l-3.49-1.59L15.32,20.95z M14.09,25.18h4.7v0.83
			h-4.7C14.09,26.01,14.09,25.18,14.09,25.18z M15.16,30.46l-0.32-0.76l3.77-1.62l0.32,0.76L15.16,30.46z M19.56,20.35
			c-0.51,0-0.93-0.66-0.93-1.48s0.41-1.48,0.93-1.48s0.93,0.66,0.93,1.48C20.48,19.7,20.07,20.35,19.56,20.35z M26.63,34.92
			c-0.01,0-0.03,0-0.03-0.01c-0.01,0-0.02,0-0.03,0.01V34.9c0,0,0.01,0,0.03,0.01c0.02,0,0.03-0.01,0.03-0.01V34.92z M28.65,20.43
			c0,0-0.28-0.16-0.6-0.11c-0.32,0.05-0.58,0.04-0.7,0.67c-0.12,0.63-0.74,0.68-0.74,0.68s-0.62-0.05-0.73-0.68
			c-0.12-0.63-0.38-0.62-0.7-0.67c-0.32-0.05-0.6,0.11-0.6,0.11s-0.4-0.86,0.37-1.25c0.77-0.39,1.67-0.34,1.67-0.34
			s0.91-0.04,1.67,0.34C29.05,19.57,28.65,20.43,28.65,20.43z M38.25,21.7l-3.49,1.59l-0.34-0.75l3.49-1.59L38.25,21.7z
			 M33.67,20.35c-0.51,0-0.93-0.66-0.93-1.48s0.41-1.48,0.93-1.48s0.93,0.66,0.93,1.48C34.59,19.7,34.18,20.35,33.67,20.35z
			 M38.06,30.46l-3.78-1.62l0.32-0.76l3.78,1.62L38.06,30.46z M39.13,26.01h-4.7v-0.83h4.7V26.01z"/>
		<path class="st2" d="M29.96,31.92c-1.4,0-2.64,0.68-3.45,1.72c-0.81-1.04-2.05-1.72-3.45-1.72c-2.04,0-3.75,1.41-4.27,3.32
			c-0.24,0.86-0.16,1.77,0.11,2.62c0.55,1.8,2.22,5.09,7.61,7.69c5.4-2.59,7.06-5.89,7.61-7.69c0.26-0.85,0.34-1.76,0.11-2.62
			C33.72,33.33,32,31.92,29.96,31.92z"/>
	</g>
</g>
</svg>
