<?xml version="1.0" encoding="utf-8"?>
<!-- Generator: Adobe Illustrator 25.2.3, SVG Export Plug-In . SVG Version: 6.00 Build 0)  -->
<svg version="1.1" id="Capa_1" xmlns="http://www.w3.org/2000/svg" xmlns:xlink="http://www.w3.org/1999/xlink" x="0px" y="0px"
	 viewBox="0 0 100 100" style="enable-background:new 0 0 100 100;" xml:space="preserve">
<style type="text/css">
	.st0{fill-rule:evenodd;clip-rule:evenodd;fill:#FFFFFF;}
	.st1{opacity:0.55;fill-rule:evenodd;clip-rule:evenodd;fill:#FFFFFF;}
</style>
<g>
	<path class="st0" d="M49.91,66.55V66.5c0,0-0.03,0.01-0.07,0.02c-0.05-0.01-0.07-0.02-0.07-0.02v0.04
		c0.03-0.01,0.05-0.01,0.07-0.02C49.86,66.53,49.88,66.54,49.91,66.55z"/>
	<path class="st0" d="M47.03,75.5c-0.28,0.4-0.59,0.89-0.92,1.4c0.1-0.12,0.21-0.25,0.3-0.36c1.32-1.48,2.89-1.33,3.42-1.23
		c0.03,0.01,0.06,0.01,0.08,0.02c0,0,0,0,0.01,0c0.02-0.01,0.05-0.01,0.09-0.02c0.49-0.1,1.91-0.21,3.17,1.01
		c-0.19-0.29-0.37-0.57-0.54-0.81c-1.05-1.47-2.31-1.33-2.72-1.22c-0.03,0.01-0.06,0.01-0.07,0.02c-0.02-0.01-0.05-0.01-0.07-0.02
		C49.34,74.17,48.08,74.02,47.03,75.5z"/>
	<path class="st1" d="M35.22,42.63c-1.2-0.26-3.41,15.98,0.81,14.66c4.23-1.32,6.15-4.21,6.15-6
		C42.19,48.21,36.42,42.88,35.22,42.63z"/>
	<path class="st0" d="M86.52,51.09c-1.15-14.59-8.64-47.98-8.64-47.98l-12.91,8.97c0,0-2.59-1.73-6.72-2.59
		c-4.13-0.86-8.4-0.82-8.4-0.82s-4.27-0.05-8.4,0.82c-4.13,0.86-6.72,2.59-6.72,2.59L21.84,3.12c0,0-7.49,33.39-8.64,47.98
		c-1.15,14.59-5.28,43.28,14.11,45.58c17.08,2.03,19.85-9.66,19.88-14.96c-1.55-0.41-2.84-1.12-3.71-2c0.06-0.05,0.14-0.11,0.2-0.17
		c0.15-0.12,0.28-0.26,0.42-0.4c-1.79,1.25-4.03,0.38-5.22-1.26c-0.65-0.89-1.04-1.94-1.36-2.99c-0.32-1.03-2.06-13.41-1.26-13.3
		c-0.01,0-3.16-0.47-3.85-4.39c-0.17-0.98-0.26-2.35-0.27-3.88l-7.75,3.32l-0.72-1.69l8.4-3.6l0.09,0.22
		c0.04-1.61,0.14-3.28,0.3-4.83H22.01V44.9h10.46v1.71c0.27-2.54,0.67-4.7,1.17-5.52c1.24-2.01,9.41,4.16,10.72,10.63h11
		c1.31-6.47,9.48-12.64,10.72-10.63c0.5,0.81,0.91,2.98,1.17,5.52V44.9h10.46v1.84l-10.45,0c0.16,1.55,0.26,3.23,0.3,4.83l0.09-0.22
		l8.4,3.6l-0.72,1.69l-7.75-3.32c-0.01,1.53-0.1,2.9-0.27,3.88c-0.7,3.93-3.85,4.39-3.85,4.39c0.42,4.44-0.05,8.6-1.11,12.93
		c-0.24,0.98-0.5,1.98-1,2.86c-0.98,1.71-3.46,3.02-5.35,2.03c0.28,0.25,0.58,0.48,0.9,0.67c-1.06,0.89-2.6,1.55-4.36,1.85
		c0.1,5.4,3.03,16.73,19.87,14.73C91.8,94.37,87.67,65.68,86.52,51.09z M31.75,40.7l-7.77-3.55l0.76-1.67l7.77,3.55L31.75,40.7z
		 M34.17,34.16c-1.14,0-2.06-1.47-2.06-3.29c0-1.82,0.92-3.29,2.06-3.29c1.14,0,2.06,1.47,2.06,3.29
		C36.23,32.69,35.31,34.16,34.17,34.16z M54.4,34.33c0,0-0.62-0.36-1.34-0.24c-0.72,0.12-1.29,0.1-1.56,1.49
		c-0.26,1.39-1.63,1.51-1.63,1.51s-1.37-0.12-1.63-1.51s-0.84-1.37-1.56-1.49c-0.72-0.12-1.34,0.24-1.34,0.24s-0.89-1.92,0.82-2.78
		c1.7-0.86,3.72-0.77,3.72-0.77s2.02-0.1,3.72,0.77C55.29,32.41,54.4,34.33,54.4,34.33z M65.55,34.16c-1.14,0-2.06-1.47-2.06-3.29
		c0-1.82,0.92-3.29,2.06-3.29c1.14,0,2.06,1.47,2.06,3.29C67.62,32.69,66.69,34.16,65.55,34.16z M67.98,40.7l-0.76-1.67l7.77-3.55
		l0.76,1.67L67.98,40.7z"/>
	<path class="st1" d="M63.88,57.29c4.23,1.32,2-14.99,0.81-14.66c-2.65,0.73-6.96,6.88-6.96,8.66
		C57.73,53.08,59.65,55.97,63.88,57.29z"/>
</g>
<path class="st0" d="M56.9,58.37c-0.71,0-1.29,0.92-1.29,2.06c0,1.14,0.58,2.06,1.29,2.06c0.71,0,1.29-0.92,1.29-2.06
	C58.19,59.29,57.62,58.37,56.9,58.37L56.9,58.37z"/>
<path class="st0" d="M50.19,70.55c0,0-1.03-0.09-1.23-1.14c-0.2-1.05-0.63-1.03-1.17-1.12c-0.54-0.09-1.01,0.18-1.01,0.18
	s-0.67-1.45,0.61-2.1c1.28-0.65,2.8-0.58,2.8-0.58s1.52-0.07,2.8,0.58c1.28,0.65,0.61,2.1,0.61,2.1s-0.47-0.27-1.01-0.18
	c-0.54,0.09-0.98,0.07-1.17,1.12C51.22,70.46,50.19,70.55,50.19,70.55L50.19,70.55z"/>
<path class="st0" d="M43.48,58.37c-0.71,0-1.29,0.92-1.29,2.06c0,1.14,0.58,2.06,1.29,2.06c0.71,0,1.29-0.92,1.29-2.06
	C44.77,59.29,44.19,58.37,43.48,58.37L43.48,58.37z"/>
</svg>
