<?xml version="1.0" encoding="utf-8"?>
<!-- Generator: Adobe Illustrator 25.2.3, SVG Export Plug-In . SVG Version: 6.00 Build 0)  -->
<svg version="1.1" id="Capa_1" xmlns="http://www.w3.org/2000/svg" xmlns:xlink="http://www.w3.org/1999/xlink" x="0px" y="0px"
	 viewBox="0 0 100 100" style="enable-background:new 0 0 100 100;" xml:space="preserve">
<style type="text/css">
	.st0{fill-rule:evenodd;clip-rule:evenodd;fill:#FFFFFF;}
	.st1{opacity:0.55;fill-rule:evenodd;clip-rule:evenodd;fill:#FFFFFF;}
	.st2{opacity:0.44;fill:#FFFFFF;stroke:#FFFFFF;stroke-width:2;stroke-linecap:round;stroke-linejoin:round;stroke-miterlimit:10;}
</style>
<g>
	<path class="st0" d="M-195.94,82.33v-0.04c0,0-0.03,0.01-0.07,0.02c-0.05-0.01-0.07-0.02-0.07-0.02v0.04
		c0.03-0.01,0.05-0.01,0.07-0.02C-196,82.32-195.97,82.33-195.94,82.33z"/>
	<path class="st0" d="M-198.82,91.28c-0.28,0.4-0.59,0.89-0.92,1.4c0.1-0.12,0.21-0.25,0.3-0.36c1.32-1.48,2.89-1.33,3.42-1.23
		c0.03,0.01,0.06,0.01,0.08,0.02c0,0,0,0,0.01,0c0.02-0.01,0.05-0.01,0.09-0.02c0.49-0.1,1.91-0.21,3.17,1.01
		c-0.19-0.29-0.37-0.57-0.54-0.81c-1.05-1.47-2.31-1.33-2.72-1.22c-0.03,0.01-0.06,0.01-0.07,0.02c-0.02-0.01-0.05-0.01-0.07-0.02
		C-196.51,89.96-197.77,89.81-198.82,91.28z"/>
	<path class="st1" d="M-210.63,58.41c-1.2-0.26-3.41,15.98,0.81,14.66c4.23-1.32,6.15-4.21,6.15-6
		C-203.67,63.99-209.43,58.66-210.63,58.41z"/>
	<path class="st0" d="M-159.33,66.88c-1.15-14.59-8.64-47.98-8.64-47.98l-12.91,8.97c0,0-2.59-1.73-6.72-2.59
		c-4.13-0.86-8.4-0.82-8.4-0.82s-4.27-0.05-8.4,0.82c-4.13,0.86-6.72,2.59-6.72,2.59l-12.91-8.97c0,0-7.49,33.39-8.64,47.98
		c-1.15,14.59-5.28,43.28,14.11,45.58c17.08,2.03,19.85-9.66,19.88-14.96c-1.55-0.41-2.84-1.12-3.71-2c0.06-0.05,0.14-0.11,0.2-0.17
		c0.15-0.12,0.28-0.26,0.42-0.4c-1.79,1.25-4.03,0.38-5.22-1.26c-0.65-0.89-1.04-1.94-1.36-2.99c-0.32-1.03-2.06-13.41-1.26-13.3
		c-0.01,0-3.16-0.47-3.85-4.39c-0.17-0.98-0.26-2.35-0.27-3.88l-7.75,3.32l-0.72-1.69l8.4-3.6l0.09,0.22
		c0.04-1.61,0.14-3.28,0.3-4.83h-10.45v-1.84h10.46v1.71c0.27-2.54,0.67-4.7,1.17-5.52c1.24-2.01,9.41,4.16,10.72,10.63h11
		c1.31-6.47,9.48-12.64,10.72-10.63c0.5,0.81,0.91,2.98,1.17,5.52v-1.71h10.46v1.84l-10.45,0c0.16,1.55,0.26,3.23,0.3,4.83
		l0.09-0.22l8.4,3.6l-0.72,1.69l-7.75-3.32c-0.01,1.53-0.1,2.9-0.27,3.88c-0.7,3.93-3.85,4.39-3.85,4.39
		c0.42,4.44-0.05,8.6-1.11,12.93c-0.24,0.98-0.5,1.98-1,2.86c-0.98,1.71-3.46,3.02-5.35,2.03c0.28,0.25,0.58,0.48,0.9,0.67
		c-1.06,0.89-2.6,1.55-4.36,1.85c0.1,5.4,3.03,16.73,19.87,14.73C-154.06,110.16-158.18,81.47-159.33,66.88z M-214.1,56.49
		l-7.77-3.55l0.76-1.67l7.77,3.55L-214.1,56.49z M-211.68,49.95c-1.14,0-2.06-1.47-2.06-3.29c0-1.82,0.92-3.29,2.06-3.29
		c1.14,0,2.06,1.47,2.06,3.29C-209.62,48.48-210.54,49.95-211.68,49.95z M-191.45,50.12c0,0-0.62-0.36-1.34-0.24
		c-0.72,0.12-1.29,0.1-1.56,1.49c-0.26,1.39-1.63,1.51-1.63,1.51s-1.37-0.12-1.63-1.51s-0.84-1.37-1.56-1.49
		c-0.72-0.12-1.34,0.24-1.34,0.24s-0.89-1.92,0.82-2.78c1.7-0.86,3.72-0.77,3.72-0.77s2.02-0.1,3.72,0.77
		C-190.57,48.2-191.45,50.12-191.45,50.12z M-180.3,49.95c-1.14,0-2.06-1.47-2.06-3.29c0-1.82,0.92-3.29,2.06-3.29
		c1.14,0,2.06,1.47,2.06,3.29C-178.24,48.48-179.16,49.95-180.3,49.95z M-177.88,56.49l-0.76-1.67l7.77-3.55l0.76,1.67
		L-177.88,56.49z"/>
	<path class="st1" d="M-181.97,73.08c4.23,1.32,2-14.99,0.81-14.66c-2.65,0.73-6.96,6.88-6.96,8.66
		C-188.12,68.86-186.21,71.76-181.97,73.08z"/>
</g>
<path class="st0" d="M-188.95,74.15c-0.71,0-1.29,0.92-1.29,2.06c0,1.14,0.58,2.06,1.29,2.06c0.71,0,1.29-0.92,1.29-2.06
	C-187.66,75.07-188.24,74.15-188.95,74.15L-188.95,74.15z"/>
<path class="st0" d="M-195.66,86.34c0,0-1.03-0.09-1.23-1.14c-0.2-1.05-0.63-1.03-1.17-1.12c-0.54-0.09-1.01,0.18-1.01,0.18
	s-0.67-1.45,0.61-2.1c1.28-0.65,2.8-0.58,2.8-0.58s1.52-0.07,2.8,0.58c1.28,0.65,0.61,2.1,0.61,2.1s-0.47-0.27-1.01-0.18
	c-0.54,0.09-0.98,0.07-1.17,1.12C-194.63,86.25-195.66,86.34-195.66,86.34L-195.66,86.34z"/>
<path class="st0" d="M-202.38,74.15c-0.71,0-1.29,0.92-1.29,2.06c0,1.14,0.58,2.06,1.29,2.06c0.71,0,1.29-0.92,1.29-2.06
	C-201.09,75.07-201.66,74.15-202.38,74.15L-202.38,74.15z"/>
<g>
	<path class="st0" d="M63.2,77.53c-1.57,2.96-4.55,6.67-10.26,10.01c1.17,4.02,5.44,8.57,18.61,7c18.53-2.2,14.58-29.62,13.48-43.56
		c-1.1-13.94-8.25-45.85-8.25-45.85l-12.34,8.58c0,0-2.48-1.65-6.42-2.48C54.08,10.41,50,10.45,50,10.45s-4.08-0.05-8.02,0.78
		c-3.94,0.83-6.42,2.48-6.42,2.48L23.22,5.13c0,0-7.15,31.92-8.25,45.85c-1.1,13.94-5.04,41.36,13.48,43.56
		c13.11,1.56,17.4-2.95,18.59-6.95c-5.71-3.32-8.71-7-10.29-9.97l-1.33-3.15c-0.5-1.63-0.65-3.36-0.21-5c1-3.65,4.27-6.33,8.15-6.33
		c2.68,0,5.03,1.3,6.58,3.28c1.55-1.98,3.91-3.28,6.58-3.28c3.88,0,7.16,2.68,8.15,6.33c0.45,1.64,0.29,3.38-0.21,5
		c-0.21,0.68-0.5,1.47-0.91,2.33L63.2,77.53z M25.99,36.07l7.43,3.39l-0.73,1.6l-7.43-3.39L25.99,36.07z M23.38,45.07h10v1.76h-10
		V45.07z M25.65,56.29l-0.69-1.62l8.02-3.44l0.69,1.62L25.65,56.29z M35,34.8c-1.09,0-1.97-1.41-1.97-3.14
		c0-1.73,0.88-3.14,1.97-3.14s1.97,1.41,1.97,3.14C36.97,33.4,36.09,34.8,35,34.8z M50.05,65.76c-0.03-0.01-0.06-0.01-0.07-0.02
		c-0.02,0.01-0.04,0.01-0.07,0.02v-0.04c0,0,0.02,0.01,0.07,0.02c0.04-0.01,0.07-0.02,0.07-0.02V65.76z M54.34,34.96
		c0,0-0.6-0.34-1.28-0.23c-0.69,0.11-1.24,0.09-1.49,1.42C51.31,37.49,50,37.6,50,37.6s-1.31-0.11-1.56-1.44
		c-0.25-1.33-0.8-1.31-1.49-1.42c-0.69-0.11-1.28,0.23-1.28,0.23s-0.85-1.83,0.78-2.66c1.63-0.83,3.56-0.73,3.56-0.73
		s1.93-0.09,3.56,0.73C55.18,33.13,54.34,34.96,54.34,34.96z M74.74,37.66l-7.43,3.39l-0.73-1.6l7.43-3.39L74.74,37.66z M65,34.8
		c-1.09,0-1.97-1.41-1.97-3.14c0-1.73,0.88-3.14,1.97-3.14c1.09,0,1.97,1.41,1.97,3.14C66.97,33.4,66.09,34.8,65,34.8z M74.35,56.29
		l-8.03-3.44l0.69-1.62l8.03,3.44L74.35,56.29z M76.62,46.83l-10,0v-1.76h10V46.83z"/>
	<path class="st2" d="M57.13,59.39c-2.98,0-5.61,1.44-7.34,3.66c-1.73-2.21-4.35-3.66-7.34-3.66c-4.33,0-7.98,2.99-9.08,7.06
		c-0.5,1.83-0.33,3.76,0.23,5.58c1.18,3.83,4.71,10.83,16.19,16.34c11.48-5.51,15.01-12.52,16.19-16.34
		c0.56-1.81,0.73-3.75,0.23-5.58C65.11,62.38,61.46,59.39,57.13,59.39z"/>
</g>
</svg>
