<?xml version="1.0" encoding="utf-8"?>
<!-- Generator: Adobe Illustrator 25.2.3, SVG Export Plug-In . SVG Version: 6.00 Build 0)  -->
<svg version="1.1" id="Capa_1" xmlns="http://www.w3.org/2000/svg" xmlns:xlink="http://www.w3.org/1999/xlink" x="0px" y="0px"
	 viewBox="0 0 205 55" style="enable-background:new 0 0 205 55;" xml:space="preserve">
<style type="text/css">
	.st0{fill-rule:evenodd;clip-rule:evenodd;}
	.st1{fill:#FFFFFF;enable-background:new    ;}
</style>
<g>
	<g>
		<path d="M64.71,29.42v8.26h-2.65V17.17h6.52c2.35,0,4.1,0.55,5.27,1.64c1.16,1.1,1.75,2.6,1.75,4.5c0,1.92-0.6,3.42-1.8,4.5
			c-1.2,1.08-2.94,1.62-5.21,1.62H64.71z M71.82,26.19c0.71-0.68,1.06-1.64,1.06-2.88c0-1.28-0.35-2.26-1.06-2.92
			c-0.71-0.67-1.87-1-3.48-1h-3.64v7.83h3.64C69.96,27.21,71.12,26.87,71.82,26.19z"/>
		<path d="M93.26,30.26H80.48c0.06,1.82,0.58,3.19,1.56,4.1c0.98,0.91,2.18,1.37,3.59,1.37c1.28,0,2.35-0.33,3.22-0.98
			c0.86-0.65,1.39-1.52,1.59-2.6h2.82c-0.19,1.11-0.63,2.1-1.29,2.97c-0.67,0.87-1.54,1.55-2.6,2.04c-1.07,0.49-2.27,0.73-3.61,0.73
			c-1.53,0-2.89-0.33-4.07-0.99c-1.18-0.66-2.11-1.61-2.78-2.84c-0.67-1.23-1-2.68-1-4.35c0-1.67,0.33-3.12,1-4.37
			c0.67-1.24,1.6-2.19,2.78-2.85c1.18-0.66,2.54-0.99,4.07-0.99c1.55,0,2.91,0.33,4.06,0.99c1.15,0.66,2.04,1.54,2.65,2.65
			c0.61,1.11,0.92,2.33,0.92,3.67C93.37,29.37,93.33,29.86,93.26,30.26z M90.11,26.02c-0.45-0.8-1.06-1.39-1.83-1.78
			c-0.78-0.39-1.62-0.58-2.53-0.58c-1.46,0-2.68,0.45-3.67,1.35c-0.99,0.9-1.52,2.23-1.6,3.97H90.7
			C90.75,27.8,90.56,26.81,90.11,26.02z"/>
		<path d="M104.46,35.36v2.33h-1.98c-1.63,0-2.85-0.39-3.65-1.16c-0.81-0.78-1.21-2.08-1.21-3.9v-8.61h-2.39v-2.3h2.39v-3.99h2.68
			v3.99h4.13v2.3h-4.13v8.67c0,1.03,0.19,1.73,0.57,2.11c0.38,0.38,1.03,0.57,1.96,0.57H104.46z"/>
		<path d="M119.45,33.87h6.63v3.81h-11.61V17.11h4.98V33.87z"/>
		<path d="M140.3,22.25c1.27,0.67,2.27,1.63,3,2.9c0.73,1.26,1.09,2.74,1.09,4.42c0,1.69-0.36,3.16-1.09,4.42s-1.73,2.23-3,2.9
			c-1.27,0.67-2.71,1-4.32,1s-3.06-0.33-4.34-1c-1.28-0.67-2.29-1.63-3.01-2.9s-1.09-2.74-1.09-4.42c0-1.69,0.36-3.16,1.09-4.42
			c0.73-1.26,1.73-2.23,3.01-2.9s2.73-1,4.34-1S139.03,21.58,140.3,22.25z M133.58,26.58c-0.65,0.69-0.97,1.68-0.97,2.98
			s0.33,2.29,0.97,2.97c0.65,0.68,1.45,1.02,2.4,1.02c0.95,0,1.75-0.34,2.39-1.02c0.64-0.68,0.96-1.67,0.96-2.97
			s-0.32-2.29-0.96-2.98c-0.64-0.69-1.44-1.03-2.39-1.03C135.03,25.55,134.23,25.89,133.58,26.58z"/>
		<path d="M154.48,32.83l3.52-11.38h5.3l-5.76,16.24h-6.17l-5.76-16.24h5.3L154.48,32.83z"/>
		<path d="M180.65,30.47h-11.26c0.06,1.22,0.37,2.1,0.93,2.63s1.28,0.8,2.15,0.8c0.74,0,1.35-0.18,1.83-0.55
			c0.48-0.37,0.8-0.84,0.96-1.43h5.27c-0.21,1.14-0.68,2.17-1.4,3.07s-1.63,1.61-2.74,2.12c-1.11,0.51-2.34,0.77-3.7,0.77
			c-1.59,0-3-0.33-4.23-1c-1.23-0.67-2.2-1.63-2.9-2.9s-1.05-2.74-1.05-4.42c0-1.71,0.34-3.19,1.03-4.44
			c0.69-1.25,1.65-2.21,2.9-2.88c1.24-0.67,2.66-1,4.25-1c1.61,0,3.03,0.33,4.25,0.99c1.22,0.66,2.17,1.59,2.84,2.78
			c0.67,1.19,1,2.57,1,4.12C180.79,29.54,180.74,29.98,180.65,30.47z M174.9,25.97c-0.59-0.53-1.32-0.8-2.2-0.8
			c-0.91,0-1.67,0.27-2.27,0.81c-0.6,0.54-0.94,1.34-1.02,2.39h6.34C175.78,27.31,175.49,26.51,174.9,25.97z"/>
	</g>
	<g>
		<path d="M193.03,21.97c0.98,0.53,1.74,1.28,2.29,2.23s0.82,2.05,0.82,3.28s-0.27,2.33-0.82,3.29c-0.54,0.96-1.31,1.71-2.29,2.25
			c-0.98,0.54-2.1,0.81-3.37,0.81c-1.27,0-2.39-0.27-3.37-0.81s-1.74-1.29-2.29-2.25c-0.54-0.96-0.82-2.06-0.82-3.29
			s0.27-2.32,0.82-3.28c0.55-0.96,1.31-1.7,2.29-2.23c0.98-0.53,2.1-0.8,3.37-0.8C190.93,21.17,192.06,21.44,193.03,21.97z
			 M192.56,32.19c0.83-0.45,1.46-1.08,1.91-1.89s0.67-1.76,0.67-2.82c0-1.08-0.22-2.02-0.67-2.84c-0.45-0.81-1.08-1.44-1.9-1.88
			c-0.82-0.44-1.79-0.66-2.9-0.66c-1.11,0-2.08,0.22-2.91,0.66c-0.83,0.44-1.46,1.07-1.9,1.88c-0.44,0.81-0.66,1.76-0.66,2.84
			s0.22,2.02,0.67,2.83c0.45,0.81,1.08,1.44,1.9,1.88c0.82,0.45,1.79,0.67,2.9,0.67C190.77,32.86,191.73,32.64,192.56,32.19z
			 M192.43,27.24c-0.29,0.39-0.73,0.66-1.3,0.81l1.85,3.08h-2.04l-1.69-2.95h-0.35v2.95h-1.86V23.6h3.06c0.93,0,1.62,0.22,2.08,0.66
			c0.46,0.44,0.69,0.98,0.69,1.63C192.87,26.4,192.72,26.85,192.43,27.24z M188.89,26.99h1.02c0.69,0,1.04-0.28,1.04-0.84
			c0-0.57-0.35-0.86-1.04-0.86h-1.02V26.99z"/>
	</g>
	<g>
		<path class="st0" d="M34.12,41.59c-0.8,1.51-2.33,3.41-5.25,5.12c0.6,2.06,2.78,4.39,9.53,3.58c9.48-1.13,7.46-15.16,6.9-22.3
			c-0.56-7.13-4.22-23.47-4.22-23.47l-6.32,4.39c0,0-1.27-0.84-3.29-1.27c-2.02-0.42-4.1-0.4-4.1-0.4s-2.09-0.03-4.1,0.4
			c-2.02,0.42-3.29,1.27-3.29,1.27l-6.32-4.39c0,0-3.66,16.34-4.22,23.47c-0.56,7.13-2.58,21.17,6.9,22.3
			c6.71,0.8,8.91-1.51,9.51-3.56c-2.92-1.7-4.46-3.58-5.27-5.1l-0.68-1.61c-0.26-0.83-0.33-1.72-0.11-2.56
			c0.51-1.87,2.19-3.24,4.17-3.24c1.37,0,2.57,0.67,3.37,1.68c0.79-1.01,2-1.68,3.37-1.68c1.99,0,3.66,1.37,4.17,3.24
			c0.23,0.84,0.15,1.73-0.11,2.56c-0.11,0.35-0.26,0.75-0.47,1.19L34.12,41.59z M15.07,20.37l3.8,1.74l-0.37,0.82l-3.8-1.74
			L15.07,20.37z M13.74,24.98h5.12v0.9h-5.12C13.74,25.88,13.74,24.98,13.74,24.98z M14.9,30.72l-0.35-0.83l4.1-1.76L19,28.96
			L14.9,30.72z M19.68,19.72c-0.56,0-1.01-0.72-1.01-1.61c0-0.89,0.45-1.61,1.01-1.61c0.56,0,1.01,0.72,1.01,1.61
			C20.69,19.01,20.24,19.72,19.68,19.72z M27.39,35.57c-0.02-0.01-0.03-0.01-0.04-0.01c-0.01,0.01-0.02,0.01-0.04,0.01v-0.02
			c0,0,0.01,0.01,0.04,0.01c0.02-0.01,0.04-0.01,0.04-0.01V35.57z M29.58,19.81c0,0-0.31-0.17-0.66-0.12
			c-0.35,0.06-0.63,0.05-0.76,0.73c-0.13,0.69-0.8,0.74-0.8,0.74s-0.67-0.06-0.8-0.74c-0.13-0.68-0.41-0.67-0.76-0.73
			c-0.35-0.06-0.66,0.12-0.66,0.12s-0.44-0.94,0.4-1.36c0.83-0.42,1.82-0.37,1.82-0.37s0.99-0.05,1.82,0.37
			C30.01,18.87,29.58,19.81,29.58,19.81z M40.02,21.19l-3.8,1.74l-0.37-0.82l3.8-1.74L40.02,21.19z M35.04,19.72
			c-0.56,0-1.01-0.72-1.01-1.61c0-0.89,0.45-1.61,1.01-1.61s1.01,0.72,1.01,1.61C36.05,19.01,35.6,19.72,35.04,19.72z M39.82,30.72
			l-4.11-1.76l0.35-0.83l4.11,1.76L39.82,30.72z M40.99,25.88h-5.12v-0.9h5.12V25.88z"/>
		<path class="st1" d="M31.01,32.31c-1.53,0-2.87,0.74-3.76,1.87c-0.89-1.13-2.23-1.87-3.76-1.87c-2.22,0-4.08,1.53-4.65,3.61
			c-0.26,0.94-0.17,1.92,0.12,2.86c0.6,1.96,2.41,5.54,8.29,8.36c5.88-2.82,7.68-6.41,8.29-8.36c0.29-0.93,0.37-1.92,0.12-2.86
			C35.09,33.84,33.23,32.31,31.01,32.31z"/>
	</g>
</g>
</svg>
