<?xml version="1.0" encoding="utf-8"?>
<!-- Generator: Adobe Illustrator 25.2.3, SVG Export Plug-In . SVG Version: 6.00 Build 0)  -->
<svg version="1.1" id="Capa_1" xmlns="http://www.w3.org/2000/svg" xmlns:xlink="http://www.w3.org/1999/xlink" x="0px" y="0px"
	 viewBox="0 0 80 80" style="enable-background:new 0 0 80 80;" xml:space="preserve">
<style type="text/css">
	.st0{fill:#EF7B78;}
	.st1{fill:#DF4E61;}
	.st2{fill:#EA5467;}
	.st3{fill:#C73C54;}
</style>
<path class="st0" d="M19.53,61.83c7.71,11.39,23.19,14.37,34.58,6.66c4.35-2.94,7.47-7.01,9.23-11.56c0.48-1.24,0.87-2.5,1.14-3.8
	c0.54-2.49,0.69-5.05,0.45-7.61c-0.09-1.04-0.26-2.08-0.49-3.12c-0.66-2.95-1.88-5.83-3.68-8.49c-7.71-11.39-23.19-14.37-34.58-6.66
	c-5.7,3.86-9.29,9.67-10.49,15.93c-0.2,1.02-0.33,2.06-0.4,3.1c-0.17,2.55,0.06,5.14,0.7,7.67c0.31,1.26,0.73,2.49,1.25,3.71
	C17.86,59.08,18.63,60.48,19.53,61.83z"/>
<path class="st1" d="M60.34,38.78c0.22-0.33,0.44-0.65,0.65-0.99c0.37-0.59,0.71-1.21,1.02-1.84c-0.37-0.69-0.79-1.37-1.24-2.04
	c-3.79-5.6-9.45-9.15-15.58-10.42c0.79,2,1.45,4.05,1.94,6.1c0.11,0.43,0.21,0.86,0.29,1.29C52.21,32.42,56.66,35.08,60.34,38.78z"
	/>
<g>
	<path class="st2" d="M26.92,18.11c3.15-1.4,7.7-1.11,12.52-0.81c9.59,0.6,21.52,1.35,25.75-12.57c0.19-0.62-0.16-1.27-0.78-1.46
		c-0.61-0.19-1.27,0.16-1.46,0.78c-3.7,12.15-13.7,11.52-23.37,10.92c-5.11-0.32-9.94-0.62-13.61,1
		c-10.81,4.78-9.26,21.49-9.19,22.14c0.03,0.26,0.15,1.85,0.34,2.03l2.65,2.65c0.23,0.23,0.53,0.34,0.83,0.34
		c0.3,0,0.6-0.11,0.83-0.34c0.46-0.46,0.46-1.2,0-1.65l-2.35-3.68C18.92,35.13,18.55,21.81,26.92,18.11z"/>
</g>
<path class="st0" d="M17.56,58.2c0.08,0.17,0.16,0.34,0.24,0.5c0.18,0.38,0.38,0.75,0.58,1.12c0.09,0.17,0.18,0.34,0.28,0.5
	c0.18,0.31,0.37,0.62,0.57,0.93c0.11,0.18,0.23,0.36,0.35,0.54c0.22,0.32,0.44,0.63,0.67,0.94c0.11,0.15,0.23,0.31,0.35,0.45
	l0.26,0.33c0.14,0.17,0.27,0.34,0.41,0.49c0.29,0.35,0.59,0.68,0.9,1.01c0.13,0.13,0.26,0.27,0.39,0.39
	c0.17,0.18,0.35,0.36,0.54,0.53c0.16,0.16,0.32,0.31,0.49,0.46c0.6,0.53,1.21,1.03,1.85,1.5c0.11,0.08,0.22,0.16,0.33,0.24
	c0.01,0.01,0.03,0.02,0.05,0.04c0.1,0.07,0.2,0.14,0.3,0.21c0.15,0.11,0.32,0.22,0.47,0.32c0.11,0.08,0.22,0.14,0.33,0.22
	c0.15,0.09,0.3,0.19,0.45,0.28c0.22,0.14,0.45,0.27,0.68,0.39c0.29,0.17,0.59,0.33,0.89,0.47c0.28,0.14,0.56,0.27,0.83,0.4
	c0.03,0.01,0.06,0.03,0.09,0.04c0.31,0.15,0.63,0.28,0.95,0.41c0.23,0.09,0.46,0.18,0.69,0.27c0.13,0.05,0.27,0.1,0.41,0.15
	c0.33,0.12,0.66,0.22,0.99,0.32c0.27,0.09,0.54,0.16,0.81,0.24c0.01,0,0.01,0.01,0.01,0c0.32,0.09,0.66,0.17,0.99,0.25
	c0.34,0.07,0.67,0.14,1,0.2c0.39,0.07,0.78,0.13,1.16,0.18c0.2,0.03,0.39,0.05,0.59,0.07c0.19,0.03,0.39,0.04,0.59,0.06
	c0.19,0.02,0.39,0.03,0.59,0.04c0.39,0.03,0.79,0.04,1.18,0.05c0.2,0,0.39,0,0.59,0c0.2,0,0.4,0,0.6-0.01
	c1.54-0.05,3.07-0.24,4.59-0.58c0.2-0.04,0.39-0.09,0.59-0.14c0.39-0.1,0.79-0.2,1.18-0.32c0.19-0.06,0.39-0.12,0.58-0.19
	c0.84-0.27,1.66-0.59,2.48-0.96c0.15-0.07,0.3-0.14,0.44-0.21c0.77-0.36,1.52-0.77,2.26-1.22c0.33-0.21,0.67-0.42,1-0.64
	c0.37-0.25,0.74-0.52,1.1-0.79c0.27-0.2,0.53-0.41,0.79-0.63c0.21-0.17,0.41-0.33,0.6-0.51c0.16-0.14,0.33-0.29,0.49-0.43
	c0.05-0.05,0.1-0.1,0.16-0.14c0.14-0.14,0.28-0.28,0.42-0.41c0.03-0.04,0.07-0.06,0.1-0.1c0.15-0.16,0.31-0.31,0.46-0.47
	c0.1-0.11,0.2-0.21,0.3-0.32c1.25-1.36,2.32-2.84,3.22-4.41c0.13-0.22,0.25-0.44,0.37-0.67c0.02-0.04,0.04-0.08,0.07-0.12
	c0.05-0.09,0.09-0.18,0.14-0.27c0.07-0.13,0.14-0.26,0.2-0.4c0.07-0.15,0.14-0.3,0.21-0.46c0.08-0.17,0.16-0.34,0.23-0.51
	c0.02-0.04,0.04-0.08,0.05-0.12c0.07-0.16,0.14-0.32,0.2-0.48c0.09-0.22,0.18-0.45,0.27-0.67c0.06-0.17,0.12-0.34,0.18-0.52
	c0.13-0.37,0.25-0.73,0.36-1.11c-0.68,0.54-1.38,1.07-2.1,1.57c-0.15,0.11-0.31,0.22-0.47,0.32c-5.89,3.99-12.49,6.14-19.11,6.58
	c-2.86,0.19-5.73,0.06-8.54-0.38c-2.41-0.37-4.78-0.97-7.09-1.79c-2.54-0.9-4.99-2.07-7.31-3.5c-0.99-0.61-1.95-1.26-2.89-1.96
	c0.03,0.07,0.05,0.13,0.07,0.2c0.05,0.16,0.11,0.32,0.17,0.47C17.03,57,17.28,57.61,17.56,58.2z"/>
<path class="st0" d="M30.86,54.88c2.23,0.66,4.53,1.08,6.85,1.22c2.73,0.19,5.49,0.01,8.21-0.52c4.01-0.79,7.93-2.38,11.52-4.81
	c0.66-0.45,1.3-0.91,1.92-1.4c1.99-1.58,3.74-3.35,5.25-5.28c0.05-0.07,0.09-0.13,0.15-0.19c0.01-0.01,0.02-0.03,0.03-0.05
	c-0.12-0.77-0.28-1.54-0.48-2.29c-0.06-0.26-0.13-0.51-0.21-0.77c-0.02-0.09-0.05-0.17-0.07-0.25c-0.04-0.15-0.09-0.29-0.13-0.43
	c-0.11-0.35-0.24-0.71-0.37-1.06c-0.1-0.25-0.19-0.49-0.29-0.74c-0.15-0.35-0.3-0.69-0.45-1.03c-0.07-0.15-0.15-0.29-0.21-0.44
	c-0.07-0.12-0.13-0.25-0.19-0.37c-0.03-0.07-0.07-0.13-0.1-0.19c-0.07-0.13-0.14-0.27-0.22-0.41c-0.01,0.02-0.02,0.04-0.03,0.06
	c-0.48,0.98-1.05,1.92-1.67,2.83c-1.34,1.96-2.98,3.75-4.91,5.3c-0.53,0.44-1.09,0.85-1.67,1.25c-1.9,1.28-3.91,2.27-5.98,2.96
	c-2.58,0.88-5.25,1.31-7.91,1.32c-2.27,0.01-4.53-0.3-6.71-0.9c-2.55-0.7-4.99-1.81-7.22-3.31c-1.43-0.95-2.77-2.07-4-3.34
	c-1-1.03-1.92-2.16-2.76-3.4c-0.44-0.65-0.85-1.32-1.22-2.01c-0.08,0.16-0.16,0.31-0.23,0.47c-0.08,0.16-0.15,0.33-0.23,0.49
	c-0.27,0.58-0.5,1.18-0.71,1.78c-0.09,0.23-0.17,0.47-0.24,0.71c-0.49,1.5-0.84,3.04-1.04,4.61c0.61,0.74,1.25,1.45,1.92,2.12
	c1.9,1.93,4.03,3.58,6.3,4.92C25.96,53.1,28.37,54.15,30.86,54.88z"/>
<path class="st2" d="M41.08,49.57c2.26-0.11,4.51-0.53,6.7-1.28c0.52-3.04,0.74-6.16,0.64-9.27c-0.09-2.72-0.41-5.45-0.99-8.15
	c-0.52-2.5-1.28-4.97-2.24-7.39c-0.01-0.01-0.01-0.03-0.02-0.05c-0.67-0.14-1.35-0.25-2.02-0.33c-0.4-0.05-0.8-0.08-1.2-0.11
	c-0.28-0.02-0.56-0.04-0.84-0.05c-0.31-0.01-0.63-0.02-0.95-0.02c-0.03,0-0.05-0.01-0.07,0c-0.34,0.01-0.68,0.01-1.03,0.03
	c-0.27,0.01-0.54,0.03-0.82,0.05c-0.07,0-0.14,0.01-0.21,0.01c-0.33,0.03-0.68,0.07-1.02,0.11c0.01,0.03,0.03,0.05,0.04,0.08
	c0.18,0.37,0.35,0.74,0.51,1.12c0.05,0.11,0.11,0.23,0.15,0.34c0.11,0.25,0.23,0.51,0.33,0.77c0.03,0.05,0.05,0.11,0.07,0.16
	c0.19,0.46,0.37,0.93,0.54,1.4c0.28,0.78,0.53,1.58,0.77,2.37c0.71,2.43,1.17,4.9,1.4,7.38c0.4,4.32,0.08,8.66-0.93,12.85
	C40.27,49.61,40.67,49.59,41.08,49.57z"/>
<path class="st2" d="M34.3,48.99c1.45,0.33,2.92,0.53,4.41,0.59c0.39,0.02,0.78,0.03,1.17,0.03c1.01-4.19,1.34-8.53,0.93-12.85
	c-0.23-2.48-0.69-4.95-1.4-7.38c-0.23-0.79-0.49-1.59-0.77-2.37c-0.17-0.47-0.35-0.94-0.54-1.4c-0.02-0.05-0.04-0.11-0.07-0.16
	c-0.1-0.26-0.21-0.52-0.33-0.77c-0.05-0.11-0.1-0.23-0.15-0.34c-0.16-0.37-0.33-0.75-0.51-1.12c-0.01-0.03-0.03-0.05-0.04-0.08
	c-0.28,0.03-0.56,0.07-0.84,0.12c-0.11,0.02-0.21,0.03-0.31,0.06c-0.17,0.02-0.33,0.05-0.49,0.08c-0.02,0.01-0.03,0.01-0.05,0.01
	c-0.28,0.05-0.56,0.11-0.84,0.18c-0.27,0.07-0.55,0.13-0.83,0.21c-0.28,0.07-0.55,0.15-0.83,0.24c-0.27,0.08-0.55,0.17-0.82,0.27
	c-0.19,0.06-0.36,0.13-0.54,0.19c-0.09,0.03-0.19,0.07-0.28,0.11c-0.25,0.1-0.51,0.2-0.76,0.31c-0.01,0.01-0.03,0.01-0.05,0.03
	c0.83,1.55,1.54,3.15,2.09,4.78c0.8,2.31,1.32,4.68,1.59,7.06c0.44,4.01,0.13,8.05-0.89,11.91C33.54,48.81,33.92,48.91,34.3,48.99z"
	/>
<path class="st2" d="M26.93,46.02c1.62,0.99,3.34,1.77,5.12,2.34c0.37,0.13,0.74,0.24,1.12,0.34c1.01-3.86,1.33-7.91,0.89-11.91
	c-0.27-2.38-0.79-4.75-1.59-7.06c-0.55-1.63-1.26-3.23-2.09-4.78c-0.01,0-0.03,0.01-0.04,0.02c-0.17,0.07-0.33,0.13-0.49,0.21
	c-0.17,0.08-0.35,0.17-0.53,0.25c-0.13,0.06-0.25,0.12-0.37,0.18c-0.15,0.07-0.29,0.15-0.43,0.23c-0.08,0.04-0.17,0.09-0.25,0.13
	c-0.17,0.09-0.33,0.18-0.49,0.28c-0.17,0.09-0.34,0.19-0.51,0.29c-0.34,0.21-0.67,0.43-1,0.65c-0.18,0.12-0.35,0.25-0.53,0.37
	c-0.14,0.1-0.28,0.2-0.41,0.3c-0.14,0.1-0.27,0.21-0.41,0.31c-0.08,0.07-0.16,0.13-0.24,0.19c-0.05,0.04-0.1,0.08-0.15,0.12
	c-0.1,0.08-0.2,0.16-0.3,0.25c-0.15,0.13-0.3,0.25-0.45,0.38c0.46,0.91,0.86,1.84,1.2,2.78c0.86,2.37,1.34,4.82,1.46,7.27
	c0.1,2.09-0.06,4.19-0.48,6.22C26.26,45.62,26.59,45.83,26.93,46.02z"/>
<path class="st2" d="M24.9,44.66c0.34,0.26,0.69,0.51,1.04,0.74c0.42-2.04,0.58-4.13,0.48-6.22c-0.11-2.45-0.59-4.9-1.46-7.27
	c-0.34-0.94-0.74-1.86-1.2-2.78c-0.15,0.13-0.31,0.27-0.45,0.41c-0.15,0.14-0.29,0.27-0.44,0.41l-0.01,0.01
	c-0.31,0.31-0.62,0.62-0.91,0.93c-0.25,0.27-0.49,0.55-0.73,0.83c-0.09,0.11-0.18,0.21-0.27,0.31c-0.29,0.36-0.57,0.73-0.84,1.1
	c-0.08,0.11-0.17,0.23-0.25,0.35c-0.49,0.69-0.93,1.4-1.34,2.13c-0.01,0.01-0.01,0.01-0.01,0.01c-0.19,0.34-0.37,0.68-0.55,1.03
	c0.37,0.69,0.78,1.36,1.22,2.01c0.84,1.24,1.76,2.37,2.76,3.4C22.87,43.02,23.85,43.88,24.9,44.66z"/>
<path class="st1" d="M53.76,45.33c0.25-0.17,0.5-0.35,0.74-0.53c0.32-0.23,0.63-0.47,0.93-0.72c-2.06-2.12-4.43-3.81-7-5.05
	c0.01,0.45,0.03,0.9,0.03,1.35c0.01,2.66-0.22,5.32-0.67,7.92C49.85,47.6,51.86,46.61,53.76,45.33z"/>
<path class="st1" d="M48.42,39.02c2.57,1.24,4.95,2.93,7,5.05c0.3-0.24,0.6-0.49,0.89-0.75c1.26-1.1,2.37-2.3,3.35-3.6
	c0.23-0.31,0.46-0.63,0.68-0.95c-3.68-3.7-8.13-6.36-12.91-7.9c0.1,0.46,0.19,0.92,0.27,1.39c0.33,1.81,0.55,3.63,0.65,5.46
	L48.42,39.02z"/>
<g>
	<path class="st2" d="M26.38,62.3c2.37,0.84,4.83,1.46,7.3,1.84c2.03,0.32,4.08,0.47,6.14,0.47c0.89,0,1.78-0.03,2.66-0.09
		c7.02-0.47,13.83-2.8,19.69-6.78c0.17-0.11,0.33-0.22,0.48-0.33c0.17-0.11,0.41-0.29,0.7-0.5c0.48-1.24,0.87-2.5,1.14-3.8
		c-0.87,0.68-2.58,1.96-3.19,2.39c-0.15,0.11-0.29,0.21-0.44,0.31c-5.52,3.73-11.93,5.94-18.54,6.38c-2.76,0.19-5.54,0.06-8.29-0.37
		c-2.32-0.36-4.64-0.94-6.87-1.74c-2.5-0.89-4.88-2.03-7.09-3.4c-0.83-0.51-2.91-1.93-4.07-2.76c0.31,1.26,0.73,2.49,1.25,3.71
		c0.65,0.43,1.24,0.81,1.6,1.04C21.2,60.14,23.73,61.35,26.38,62.3z"/>
</g>
<g>
	<path class="st2" d="M30.52,56c2.31,0.69,4.71,1.12,7.1,1.28c0.73,0.05,1.46,0.07,2.2,0.07c2.12,0,4.24-0.21,6.32-0.62
		c4.28-0.84,8.3-2.52,11.95-4.99c0.7-0.47,1.37-0.96,1.98-1.45c1.8-1.42,3.43-3.03,4.87-4.77c-0.09-1.04-0.26-2.08-0.49-3.12
		c-0.33,0.41-0.71,0.88-0.77,0.97c-1.47,1.89-3.17,3.6-5.05,5.09c-0.57,0.45-1.19,0.9-1.84,1.35c-3.39,2.29-7.12,3.85-11.09,4.63
		c-2.59,0.51-5.25,0.69-7.9,0.51c-2.24-0.15-4.45-0.55-6.6-1.18c-2.41-0.71-4.73-1.72-6.88-3c-2.22-1.32-4.25-2.91-6.06-4.74
		c-0.53-0.55-1.81-1.98-2.54-2.84c-0.2,1.02-0.33,2.06-0.4,3.1c0.5,0.56,0.97,1.08,1.28,1.38c1.95,1.98,4.15,3.69,6.53,5.1
		C25.43,54.14,27.93,55.23,30.52,56z"/>
</g>
<g>
	<path class="st1" d="M33.16,48.71c0.37,0.1,0.75,0.2,1.14,0.28c1.06-4.05,1.37-8.19,0.91-12.32c-0.28-2.5-0.83-4.96-1.64-7.31
		c-0.56-1.65-1.28-3.27-2.11-4.84c-0.09,0.03-0.19,0.07-0.28,0.11c-0.25,0.1-0.51,0.2-0.76,0.31c-0.01,0.01-0.03,0.01-0.05,0.03
		c-0.01,0-0.03,0.01-0.04,0.02c-0.17,0.07-0.33,0.13-0.49,0.21c-0.17,0.08-0.35,0.17-0.53,0.25c0.01,0.02,0.02,0.05,0.03,0.07
		c0.8,1.49,1.48,3.04,2.02,4.61c0.75,2.19,1.27,4.48,1.53,6.8c0.42,3.83,0.13,7.68-0.84,11.45C32.41,48.49,32.79,48.61,33.16,48.71z
		"/>
</g>
<g>
	<path class="st1" d="M38.7,49.58c0.39,0.02,0.78,0.03,1.17,0.03c0.4,0,0.8-0.01,1.2-0.03c1-4.25,1.3-8.6,0.89-12.92
		c-0.23-2.57-0.71-5.13-1.44-7.6c-0.59-2.06-1.38-4.09-2.3-6.04c-0.07,0-0.14,0.01-0.21,0.01c-0.33,0.03-0.68,0.07-1.02,0.11
		c-0.28,0.03-0.56,0.07-0.84,0.12c-0.11,0.02-0.21,0.03-0.31,0.06c0.01,0.11,0.05,0.23,0.1,0.33c0.95,1.95,1.74,3.99,2.34,6.06
		c0.68,2.33,1.14,4.73,1.36,7.16c0.39,4.17,0.08,8.37-0.91,12.47C38.72,49.41,38.7,49.5,38.7,49.58z"/>
</g>
<g>
	<path class="st1" d="M25.94,45.4c0.33,0.22,0.65,0.43,0.99,0.62c0.08-0.11,0.13-0.25,0.16-0.39c0.43-2.14,0.6-4.33,0.5-6.51
		c-0.12-2.6-0.63-5.16-1.52-7.61c-0.35-0.95-0.77-1.94-1.26-2.91c-0.04-0.08-0.09-0.15-0.15-0.22c-0.05,0.04-0.1,0.08-0.15,0.12
		c-0.1,0.08-0.2,0.16-0.3,0.25c-0.15,0.13-0.3,0.25-0.45,0.38c-0.15,0.13-0.31,0.27-0.45,0.41c-0.15,0.14-0.29,0.27-0.44,0.41
		c0.39,0.79,0.72,1.58,0.99,2.36c0.81,2.23,1.28,4.56,1.39,6.93c0.09,1.81-0.03,3.63-0.35,5.42C25.24,44.92,25.58,45.17,25.94,45.4z
		"/>
</g>
<g>
	<path class="st3" d="M54.5,44.8c0.32-0.23,0.63-0.47,0.93-0.72c0.3-0.24,0.6-0.49,0.89-0.75c-0.01-0.02-0.03-0.04-0.05-0.06
		c-2.02-2.08-4.86-4.09-7.79-5.5c-0.04-0.02-0.08-0.03-0.12-0.05l0.07,1.3c0.01,0.45,0.03,0.9,0.03,1.35
		C50.72,41.59,52.92,43.2,54.5,44.8z"/>
</g>
<g>
	<path class="st3" d="M59.51,39.6c0.05,0.05,0.09,0.09,0.15,0.13c0.23-0.31,0.46-0.63,0.68-0.95c0.22-0.33,0.44-0.65,0.65-0.99
		c-3.49-3.44-8.63-6.48-13.85-8.19c0.11,0.43,0.21,0.86,0.29,1.29c0.1,0.46,0.19,0.92,0.27,1.39C52.22,33.95,56.55,36.63,59.51,39.6
		z"/>
</g>
</svg>
